<?xml version="1.0" standalone="no"?>
<!-- Generator: Adobe Fireworks 10, Export SVG Extension by Aaron Beall (http://fireworks.abeall.com) . Version: 0.6.1  -->
<!DOCTYPE svg PUBLIC "-//W3C//DTD SVG 1.1//EN" "http://www.w3.org/Graphics/SVG/1.1/DTD/svg11.dtd">
<svg id="Untitled-Page%201" viewBox="0 0 16 128" style="background-color:#ffffff00" version="1.1"
	xmlns="http://www.w3.org/2000/svg" xmlns:xlink="http://www.w3.org/1999/xlink" xml:space="preserve"
	x="0px" y="0px" width="16px" height="128px"
>
	<g id="Layer%201">
		<path d="M 13.447 12.332 C 13.447 12.394 13.43 12.45 13.405 12.502 C 13.429 12.553 13.447 12.608 13.447 12.67 C 13.447 12.883 13.275 13.056 13.061 13.056 L 9.855 13.056 C 9.804 13.056 9.754 13.046 9.707 13.027 C 9.613 12.987 9.538 12.912 9.499 12.818 C 9.459 12.725 9.459 12.617 9.499 12.523 C 9.519 12.475 9.547 12.433 9.582 12.396 L 12.788 9.191 C 12.824 9.154 12.866 9.127 12.914 9.106 C 13.008 9.068 13.115 9.068 13.208 9.106 C 13.303 9.146 13.378 9.221 13.417 9.316 C 13.438 9.363 13.447 9.413 13.447 9.464 L 13.447 12.332 L 13.447 12.332 L 13.447 12.332 ZM 15.661 4.414 C 15.62 4.32 15.546 4.244 15.452 4.206 C 15.358 4.166 15.251 4.166 15.157 4.206 C 15.109 4.225 15.067 4.254 15.032 4.289 L 4.394 14.927 C 4.359 14.961 4.331 15.004 4.311 15.052 C 4.273 15.147 4.273 15.254 4.311 15.347 C 4.35 15.442 4.425 15.517 4.52 15.556 C 4.567 15.577 4.617 15.585 4.667 15.585 L 15.306 15.585 C 15.518 15.585 15.692 15.413 15.692 15.2 L 15.692 4.563 C 15.69 4.511 15.681 4.462 15.661 4.414 L 15.661 4.414 Z" fill="#333333"/>
		<path d="M 2.901 4.421 L 2.349 4.421 L 2.349 13.929 L 2.901 13.929 C 3.052 13.929 3.177 14.054 3.177 14.206 C 3.177 14.278 3.147 14.348 3.095 14.399 L 1.991 15.503 C 1.939 15.556 1.87 15.585 1.797 15.585 C 1.723 15.585 1.654 15.556 1.603 15.503 L 0.499 14.399 C 0.447 14.347 0.417 14.278 0.417 14.206 C 0.417 14.054 0.542 13.929 0.693 13.929 L 1.245 13.929 L 1.245 4.421 L 0.693 4.421 C 0.542 4.421 0.417 4.296 0.417 4.146 C 0.417 4.072 0.447 4.003 0.499 3.951 L 1.603 2.847 C 1.655 2.795 1.724 2.765 1.797 2.765 C 1.87 2.765 1.939 2.795 1.991 2.847 L 3.095 3.95 C 3.147 4.003 3.177 4.071 3.177 4.145 C 3.177 4.296 3.052 4.421 2.901 4.421 L 2.901 4.421 Z" fill="#333333"/>
		<path d="M 4.527 0.694 L 4.527 1.247 L 14.035 1.247 L 14.035 0.694 C 14.035 0.544 14.16 0.419 14.31 0.419 C 14.384 0.419 14.453 0.45 14.504 0.501 L 15.608 1.605 C 15.66 1.657 15.69 1.726 15.69 1.799 C 15.69 1.871 15.66 1.942 15.608 1.992 L 14.504 3.097 C 14.452 3.148 14.383 3.179 14.31 3.179 C 14.159 3.179 14.035 3.053 14.035 2.902 L 14.035 2.352 L 4.527 2.352 L 4.527 2.903 C 4.527 3.054 4.402 3.18 4.251 3.18 C 4.177 3.18 4.108 3.149 4.057 3.098 L 2.952 1.992 C 2.9 1.941 2.87 1.871 2.87 1.799 C 2.87 1.726 2.9 1.656 2.952 1.605 L 4.056 0.501 C 4.108 0.45 4.177 0.419 4.25 0.419 C 4.401 0.419 4.527 0.544 4.527 0.694 L 4.527 0.694 Z" fill="#333333"/>
		<g>
			<path d="M 0.39 39.163 C 0.414 38.714 0.809 38.311 1.271 38.349 C 1.675 38.326 1.986 38.657 2.105 39.014 C 2.132 39.625 2.109 40.238 2.115 40.851 C 2.118 41.021 2.118 41.192 2.124 41.362 C 2.12 41.554 2.116 41.749 2.123 41.941 C 2.114 42.803 2.118 43.667 2.117 44.529 C 2.184 44.529 2.317 44.529 2.383 44.529 C 3.375 44.526 4.366 44.534 5.358 44.524 C 8.228 44.536 11.098 44.526 13.967 44.525 C 14.511 44.542 15.056 44.518 15.6 44.535 C 15.601 44.572 15.605 44.647 15.607 44.684 C 15.607 44.732 15.608 44.828 15.608 44.875 C 15.593 45.802 15.602 46.729 15.597 47.656 C 15.056 47.64 14.512 47.681 13.972 47.636 C 13.978 47.202 13.974 46.77 13.974 46.337 C 13.973 46.29 13.973 46.198 13.973 46.151 C 12.442 46.156 10.913 46.142 9.384 46.156 C 7.798 46.149 6.214 46.145 4.628 46.156 C 3.791 46.148 2.955 46.153 2.117 46.152 C 2.115 46.653 2.117 47.154 2.114 47.655 C 1.544 47.656 0.972 47.652 0.401 47.657 C 0.4 47.618 0.398 47.542 0.396 47.502 C 0.393 46.881 0.392 46.26 0.393 45.638 C 0.396 44.962 0.393 44.286 0.393 43.611 C 0.393 43.52 0.393 43.429 0.393 43.34 C 0.396 42.911 0.391 42.483 0.393 42.054 C 0.396 41.664 0.391 41.275 0.393 40.884 C 0.401 40.311 0.393 39.737 0.39 39.163 L 0.39 39.163 Z" fill="#333333"/>
			<path d="M 2.474 40.913 C 2.586 40.329 3.076 39.83 3.685 39.795 C 3.752 39.793 3.82 39.793 3.888 39.795 C 4.276 39.835 4.612 40.054 4.865 40.339 C 5.189 40.853 5.147 41.577 4.709 42.01 C 4.241 42.502 3.404 42.509 2.898 42.068 C 2.676 41.832 2.507 41.542 2.481 41.214 C 2.479 41.113 2.476 41.014 2.474 40.913 L 2.474 40.913 Z" fill="#333333"/>
			<path d="M 6.892 40.253 C 7.873 40.253 8.852 40.252 9.833 40.253 C 10.646 40.255 11.459 40.253 12.273 40.253 C 12.613 40.254 12.964 40.226 13.294 40.332 C 13.645 40.43 13.952 40.643 14.199 40.905 C 14.275 41.007 14.345 41.114 14.426 41.214 C 14.531 41.439 14.614 41.674 14.664 41.918 C 14.678 42.607 14.661 43.296 14.669 43.985 C 12.074 43.975 9.479 43.963 6.885 43.983 C 6.897 42.975 6.881 41.967 6.887 40.96 C 6.89 40.724 6.891 40.488 6.892 40.253 L 6.892 40.253 Z" fill="#333333"/>
			<path d="M 5.294 40.698 C 5.45 40.536 5.613 40.332 5.859 40.332 C 6.091 40.295 6.28 40.446 6.451 40.576 C 6.514 40.755 6.545 40.943 6.564 41.131 C 6.529 41.957 6.581 42.783 6.531 43.609 C 6.412 43.829 6.211 44.027 5.945 44.025 C 5.363 44.051 4.781 44.027 4.2 44.035 C 3.812 44.023 3.417 44.076 3.038 43.972 C 2.859 43.835 2.746 43.643 2.689 43.427 C 2.724 43.129 2.911 42.809 3.238 42.779 C 3.92 42.753 4.602 42.774 5.284 42.767 C 5.283 42.36 5.286 41.952 5.278 41.544 C 5.275 41.262 5.273 40.979 5.294 40.698 L 5.294 40.698 Z" fill="#333333"/>
		</g>
		<g>
			<path d="M 11.885 16.721 C 12.234 16.384 12.838 16.369 13.207 16.685 C 13.459 16.892 13.59 17.23 13.559 17.554 C 13.549 19.621 13.557 23.036 13.555 25.105 C 14.211 25.105 14.868 25.104 15.525 25.105 C 15.18 26.413 14.843 27.724 14.497 29.032 C 14.373 29.413 14.259 29.886 13.855 30.06 C 13.48 30.175 13.08 30.12 12.692 30.134 C 12.765 30.605 12.856 31.071 12.928 31.54 C 12.647 31.54 12.366 31.546 12.085 31.536 C 11.992 31.066 11.893 30.598 11.787 30.134 C 9.262 30.133 6.736 30.133 4.209 30.133 C 4.103 30.599 4.005 31.068 3.911 31.536 C 3.63 31.546 3.349 31.54 3.069 31.54 C 3.143 31.072 3.228 30.606 3.308 30.139 C 2.922 30.113 2.522 30.177 2.146 30.061 C 1.741 29.888 1.624 29.415 1.501 29.033 C 1.154 27.724 0.819 26.414 0.473 25.105 C 4.598 25.105 8.723 25.105 12.848 25.105 C 12.849 23.058 12.847 19.666 12.849 17.62 C 12.863 17.497 12.793 17.391 12.744 17.286 C 12.629 17.223 12.492 17.186 12.383 17.284 C 12.07 17.584 11.769 17.894 11.464 18.201 C 11.701 18.463 12.037 18.684 12.097 19.057 C 12.133 19.51 11.84 19.898 11.564 20.227 C 10.68 19.364 9.816 18.479 8.936 17.611 C 8.874 17.551 8.82 17.485 8.769 17.418 C 9.13 17.127 9.567 16.789 10.062 16.92 C 10.422 17.075 10.646 17.419 10.935 17.67 C 11.251 17.353 11.565 17.034 11.885 16.721 L 11.885 16.721 Z" fill="#333333"/>
			<path d="M 7.56 18.081 C 7.811 17.943 8.063 17.809 8.312 17.665 C 8.445 17.784 8.572 17.91 8.688 18.044 C 8.445 18.191 8.201 18.336 7.958 18.484 C 7.825 18.351 7.692 18.217 7.56 18.081 L 7.56 18.081 Z" fill="#333333"/>
			<path d="M 6.365 18.742 C 6.631 18.595 6.897 18.447 7.164 18.301 C 7.307 18.43 7.441 18.569 7.577 18.705 C 7.323 18.871 7.059 19.019 6.802 19.18 C 6.655 19.036 6.509 18.89 6.365 18.742 L 6.365 18.742 Z" fill="#333333"/>
			<path d="M 8.323 18.839 C 8.549 18.682 8.769 18.514 9 18.363 C 9.128 18.49 9.257 18.618 9.383 18.748 C 9.167 18.917 8.948 19.083 8.732 19.254 C 8.593 19.119 8.454 18.982 8.323 18.839 L 8.323 18.839 Z" fill="#333333"/>
			<path d="M 5.324 19.323 C 5.534 19.189 5.757 19.081 5.972 18.957 C 6.121 19.105 6.271 19.253 6.416 19.406 C 6.208 19.536 5.996 19.661 5.785 19.787 C 5.629 19.634 5.474 19.48 5.324 19.323 L 5.324 19.323 Z" fill="#333333"/>
			<path d="M 9.042 19.563 C 9.233 19.369 9.426 19.176 9.62 18.985 C 9.751 19.112 9.884 19.238 10.002 19.378 C 9.809 19.566 9.62 19.761 9.427 19.949 C 9.296 19.822 9.167 19.694 9.042 19.563 L 9.042 19.563 Z" fill="#333333"/>
			<path d="M 7.239 19.615 C 7.472 19.435 7.721 19.276 7.953 19.095 C 8.107 19.222 8.243 19.37 8.384 19.512 C 8.153 19.698 7.915 19.876 7.678 20.056 C 7.531 19.91 7.384 19.764 7.239 19.615 L 7.239 19.615 Z" fill="#333333"/>
			<path d="M 10.236 19.614 C 10.367 19.742 10.498 19.871 10.621 20.007 C 10.46 20.227 10.312 20.453 10.144 20.666 C 10.008 20.534 9.874 20.399 9.741 20.265 C 9.9 20.043 10.067 19.828 10.236 19.614 L 10.236 19.614 Z" fill="#333333"/>
			<path d="M 6.292 20.288 C 6.483 20.143 6.684 20.009 6.878 19.868 C 7.034 20.014 7.184 20.168 7.333 20.321 C 7.143 20.458 6.967 20.616 6.77 20.743 C 6.588 20.632 6.45 20.438 6.292 20.288 L 6.292 20.288 Z" fill="#333333"/>
			<path d="M 8.115 20.484 C 8.323 20.283 8.525 20.075 8.732 19.871 C 8.87 19.99 8.997 20.121 9.121 20.255 C 8.916 20.467 8.706 20.67 8.489 20.868 C 8.362 20.743 8.234 20.617 8.115 20.484 L 8.115 20.484 Z" fill="#333333"/>
			<path d="M 10.936 20.319 C 11.064 20.458 11.203 20.588 11.324 20.733 C 11.18 20.965 11.065 21.212 10.915 21.441 C 10.779 21.303 10.644 21.167 10.506 21.03 C 10.651 20.795 10.791 20.556 10.936 20.319 L 10.936 20.319 Z" fill="#333333"/>
			<path d="M 9.465 20.606 C 9.619 20.733 9.753 20.882 9.894 21.023 C 9.725 21.268 9.551 21.512 9.376 21.754 C 9.227 21.608 9.079 21.46 8.934 21.31 C 9.112 21.077 9.295 20.847 9.465 20.606 L 9.465 20.606 Z" fill="#333333"/>
			<path d="M 7.818 20.807 C 7.943 20.926 8.066 21.048 8.187 21.173 C 8.021 21.346 7.851 21.513 7.681 21.682 C 7.556 21.562 7.434 21.44 7.314 21.315 C 7.48 21.143 7.649 20.975 7.818 20.807 L 7.818 20.807 Z" fill="#333333"/>
			<path d="M 9.813 22.19 C 9.967 21.93 10.123 21.669 10.281 21.411 C 10.424 21.55 10.565 21.69 10.705 21.832 C 10.555 22.099 10.406 22.364 10.256 22.63 C 10.104 22.487 9.958 22.34 9.813 22.19 L 9.813 22.19 Z" fill="#333333"/>
			<path d="M 8.238 22.243 C 8.368 22.036 8.516 21.84 8.684 21.661 C 8.826 21.814 8.977 21.959 9.122 22.111 C 8.984 22.307 8.845 22.505 8.704 22.701 C 8.543 22.554 8.395 22.395 8.238 22.243 L 8.238 22.243 Z" fill="#333333"/>
			<path d="M 9.585 22.569 C 9.736 22.72 9.886 22.87 10.037 23.021 C 9.916 23.238 9.798 23.457 9.666 23.667 C 9.51 23.513 9.351 23.36 9.203 23.199 C 9.333 22.992 9.457 22.779 9.585 22.569 L 9.585 22.569 Z" fill="#333333"/>
		</g>
		<g>
			<path d="M 5.531 58.131 C 5.358 58.196 5.267 58.42 5.361 58.586 C 5.42 58.707 5.563 58.771 5.694 58.761 C 7.234 58.76 8.774 58.761 10.313 58.76 C 10.489 58.767 10.652 58.604 10.644 58.427 C 10.642 58.258 10.49 58.104 10.319 58.112 C 8.764 58.112 7.209 58.112 5.655 58.112 C 5.612 58.11 5.571 58.117 5.531 58.131 L 5.531 58.131 ZM 5.468 56.941 C 5.359 56.995 5.287 57.112 5.288 57.233 C 5.286 57.409 5.449 57.568 5.625 57.554 C 7.176 57.553 8.728 57.554 10.28 57.554 C 10.455 57.566 10.612 57.402 10.609 57.23 C 10.613 57.056 10.456 56.903 10.283 56.906 C 8.777 56.904 7.272 56.906 5.766 56.905 C 5.666 56.905 5.56 56.895 5.468 56.941 L 5.468 56.941 ZM 13.528 56.74 C 13.039 56.774 12.613 57.197 12.59 57.69 C 12.544 58.164 12.883 58.632 13.342 58.749 C 13.661 58.847 14.02 58.756 14.272 58.541 C 14.581 58.288 14.711 57.844 14.589 57.466 C 14.458 57.017 13.994 56.696 13.528 56.74 L 13.528 56.74 ZM 2.387 56.741 C 1.906 56.769 1.485 57.177 1.444 57.655 C 1.419 57.894 1.479 58.138 1.616 58.336 C 1.832 58.666 2.258 58.848 2.644 58.77 C 3.038 58.701 3.378 58.382 3.459 57.988 C 3.546 57.641 3.42 57.255 3.157 57.015 C 2.953 56.825 2.667 56.718 2.387 56.741 L 2.387 56.741 ZM 4.409 50.843 C 3.894 50.924 3.397 51.239 3.198 51.736 C 2.867 52.569 2.537 53.404 2.207 54.237 C 2.165 54.349 2.111 54.469 2.146 54.59 C 2.172 54.794 2.345 54.954 2.539 55 C 2.626 55.016 2.716 55.009 2.804 55.01 C 6.32 55.009 9.835 55.01 13.349 55.009 C 13.658 55.01 13.923 54.669 13.813 54.373 C 13.435 53.498 13.041 52.63 12.65 51.759 C 12.362 51.148 11.674 50.822 11.022 50.804 C 8.964 50.805 6.907 50.805 4.849 50.804 C 4.701 50.8 4.554 50.821 4.409 50.843 L 4.409 50.843 ZM 4.081 50.194 C 4.342 50.12 4.616 50.102 4.886 50.106 C 6.919 50.107 8.952 50.106 10.985 50.106 C 11.258 50.102 11.535 50.115 11.799 50.189 C 12.472 50.367 13.051 50.863 13.33 51.502 C 14.033 53.116 14.719 54.737 15.431 56.348 C 15.516 56.584 15.55 56.837 15.552 57.088 C 15.553 57.652 15.552 58.219 15.552 58.783 C 15.554 59.074 15.523 59.371 15.415 59.644 C 15.185 60.26 14.639 60.743 14 60.896 C 13.989 61.553 13.992 62.213 13.991 62.872 C 13.991 63.137 13.79 63.389 13.528 63.436 L 12.583 63.436 C 12.406 63.391 12.248 63.264 12.181 63.091 C 12.116 62.945 12.133 62.781 12.131 62.626 C 12.13 62.087 12.133 61.549 12.129 61.012 C 9.294 61.011 6.46 61.011 3.625 61.012 C 3.623 61.549 3.625 62.086 3.624 62.625 C 3.623 62.769 3.639 62.92 3.588 63.059 C 3.527 63.248 3.361 63.389 3.171 63.436 L 2.211 63.436 C 1.958 63.373 1.762 63.135 1.764 62.873 C 1.769 62.188 1.748 61.504 1.755 60.818 C 1.012 60.539 0.476 59.794 0.456 58.999 C 0.443 58.327 0.453 57.653 0.451 56.981 C 0.448 56.636 0.526 56.293 0.68 55.987 C 1.305 54.507 1.925 53.024 2.547 51.543 C 2.817 50.892 3.398 50.377 4.081 50.194 L 4.081 50.194 Z" fill="#333333"/>
			<g>
				<path d="M 10.705 52.287 C 10.727 52.281 10.769 52.276 10.832 52.276 C 10.986 52.276 11.073 52.349 11.073 52.476 C 11.073 52.617 10.972 52.699 10.807 52.699 C 10.762 52.699 10.73 52.697 10.703 52.69 L 10.705 52.287 L 10.705 52.287 L 10.705 52.287 ZM 10.705 52.932 C 10.733 52.935 10.769 52.937 10.81 52.937 C 10.992 52.937 11.148 52.893 11.254 52.792 C 11.335 52.715 11.38 52.603 11.38 52.468 C 11.38 52.334 11.321 52.222 11.233 52.152 C 11.142 52.08 11.006 52.043 10.815 52.043 C 10.627 52.043 10.493 52.055 10.398 52.071 L 10.398 53.42 L 10.704 53.42 L 10.704 52.932 L 10.705 52.932 Z" fill="#333333"/>
				<path d="M 10.053 51.989 C 10.053 51.937 10.095 51.895 10.148 51.895 L 11.631 51.895 C 11.683 51.895 11.725 51.937 11.725 51.989 L 11.725 53.472 C 11.725 53.524 11.683 53.566 11.631 53.566 L 10.148 53.566 C 10.095 53.566 10.053 53.524 10.053 53.472 L 10.053 51.989 L 10.053 51.989 ZM 10.126 53.843 L 11.651 53.843 C 11.843 53.843 12 53.686 12 53.494 L 12 51.968 C 12 51.777 11.844 51.62 11.651 51.62 L 10.126 51.62 C 9.934 51.62 9.777 51.776 9.777 51.968 L 9.777 53.494 C 9.777 53.686 9.934 53.843 10.126 53.843 L 10.126 53.843 Z" fill="#333333"/>
			</g>
		</g>
		<path d="M 13.447 76.332 C 13.447 76.394 13.43 76.45 13.405 76.502 C 13.429 76.553 13.447 76.608 13.447 76.67 C 13.447 76.883 13.275 77.056 13.061 77.056 L 9.855 77.056 C 9.804 77.056 9.754 77.046 9.707 77.027 C 9.613 76.987 9.538 76.912 9.499 76.818 C 9.459 76.725 9.459 76.617 9.499 76.523 C 9.519 76.475 9.547 76.433 9.582 76.396 L 12.788 73.191 C 12.824 73.154 12.866 73.127 12.914 73.106 C 13.008 73.068 13.115 73.068 13.208 73.106 C 13.303 73.146 13.378 73.221 13.417 73.316 C 13.438 73.363 13.447 73.413 13.447 73.464 L 13.447 76.332 L 13.447 76.332 L 13.447 76.332 ZM 15.661 68.414 C 15.62 68.32 15.546 68.244 15.452 68.206 C 15.358 68.166 15.251 68.166 15.157 68.206 C 15.109 68.225 15.067 68.254 15.032 68.289 L 4.394 78.927 C 4.359 78.961 4.331 79.004 4.311 79.052 C 4.273 79.147 4.273 79.254 4.311 79.347 C 4.35 79.442 4.425 79.517 4.52 79.556 C 4.567 79.577 4.617 79.585 4.667 79.585 L 15.306 79.585 C 15.518 79.585 15.692 79.413 15.692 79.2 L 15.692 68.563 C 15.69 68.511 15.681 68.462 15.661 68.414 L 15.661 68.414 Z" fill="#ffffff"/>
		<path d="M 2.901 68.421 L 2.349 68.421 L 2.349 77.929 L 2.901 77.929 C 3.052 77.929 3.177 78.054 3.177 78.206 C 3.177 78.278 3.147 78.348 3.095 78.399 L 1.991 79.503 C 1.939 79.556 1.87 79.585 1.797 79.585 C 1.723 79.585 1.654 79.556 1.603 79.503 L 0.499 78.399 C 0.447 78.347 0.417 78.278 0.417 78.206 C 0.417 78.054 0.542 77.929 0.693 77.929 L 1.245 77.929 L 1.245 68.421 L 0.693 68.421 C 0.542 68.421 0.417 68.296 0.417 68.146 C 0.417 68.072 0.447 68.003 0.499 67.951 L 1.603 66.847 C 1.655 66.795 1.724 66.765 1.797 66.765 C 1.87 66.765 1.939 66.795 1.991 66.847 L 3.095 67.951 C 3.147 68.004 3.177 68.072 3.177 68.146 C 3.177 68.296 3.052 68.421 2.901 68.421 L 2.901 68.421 Z" fill="#ffffff"/>
		<path d="M 4.527 64.694 L 4.527 65.247 L 14.035 65.247 L 14.035 64.694 C 14.035 64.544 14.16 64.419 14.31 64.419 C 14.384 64.419 14.453 64.45 14.504 64.501 L 15.608 65.605 C 15.66 65.657 15.69 65.726 15.69 65.799 C 15.69 65.871 15.66 65.942 15.608 65.992 L 14.504 67.097 C 14.452 67.148 14.383 67.179 14.31 67.179 C 14.159 67.179 14.035 67.053 14.035 66.902 L 14.035 66.351 L 4.527 66.351 L 4.527 66.902 C 4.527 67.053 4.402 67.179 4.251 67.179 C 4.177 67.179 4.108 67.148 4.057 67.097 L 2.953 65.992 C 2.9 65.941 2.87 65.871 2.87 65.799 C 2.87 65.726 2.9 65.656 2.952 65.605 L 4.056 64.501 C 4.108 64.45 4.177 64.419 4.25 64.419 C 4.401 64.419 4.527 64.544 4.527 64.694 L 4.527 64.694 Z" fill="#ffffff"/>
		<g>
			<path d="M 0.39 103.163 C 0.414 102.714 0.809 102.311 1.271 102.349 C 1.675 102.326 1.986 102.657 2.105 103.014 C 2.132 103.625 2.109 104.238 2.115 104.851 C 2.118 105.021 2.118 105.192 2.124 105.362 C 2.12 105.554 2.116 105.749 2.123 105.941 C 2.114 106.803 2.118 107.667 2.117 108.529 C 2.184 108.529 2.317 108.529 2.383 108.529 C 3.375 108.526 4.366 108.534 5.358 108.524 C 8.228 108.536 11.098 108.526 13.967 108.525 C 14.511 108.542 15.056 108.518 15.6 108.535 C 15.601 108.572 15.605 108.647 15.607 108.684 C 15.607 108.732 15.608 108.828 15.608 108.875 C 15.593 109.802 15.602 110.729 15.597 111.656 C 15.056 111.64 14.512 111.681 13.972 111.636 C 13.978 111.202 13.974 110.77 13.974 110.337 C 13.973 110.29 13.973 110.198 13.973 110.151 C 12.442 110.156 10.913 110.142 9.384 110.156 C 7.798 110.149 6.214 110.145 4.628 110.156 C 3.791 110.148 2.955 110.153 2.117 110.152 C 2.115 110.653 2.117 111.154 2.114 111.655 C 1.544 111.656 0.972 111.652 0.401 111.657 C 0.4 111.618 0.398 111.542 0.396 111.502 C 0.393 110.881 0.392 110.26 0.393 109.638 C 0.396 108.962 0.393 108.286 0.393 107.611 C 0.393 107.52 0.393 107.429 0.393 107.34 C 0.396 106.911 0.391 106.483 0.393 106.054 C 0.396 105.664 0.391 105.275 0.393 104.884 C 0.401 104.311 0.393 103.737 0.39 103.163 L 0.39 103.163 Z" fill="#ffffff"/>
			<path d="M 2.474 104.913 C 2.586 104.329 3.076 103.83 3.685 103.795 C 3.752 103.793 3.82 103.793 3.888 103.795 C 4.276 103.835 4.612 104.054 4.865 104.339 C 5.189 104.853 5.147 105.577 4.709 106.01 C 4.241 106.502 3.404 106.509 2.898 106.068 C 2.676 105.832 2.507 105.542 2.481 105.214 C 2.479 105.113 2.476 105.014 2.474 104.913 L 2.474 104.913 Z" fill="#ffffff"/>
			<path d="M 6.892 104.253 C 7.873 104.253 8.852 104.252 9.833 104.253 C 10.646 104.255 11.459 104.253 12.273 104.253 C 12.613 104.254 12.964 104.226 13.294 104.332 C 13.645 104.43 13.952 104.643 14.199 104.905 C 14.275 105.007 14.345 105.114 14.426 105.214 C 14.531 105.439 14.614 105.674 14.664 105.918 C 14.678 106.607 14.661 107.296 14.669 107.985 C 12.074 107.975 9.479 107.963 6.885 107.983 C 6.897 106.975 6.881 105.967 6.887 104.96 C 6.89 104.724 6.891 104.488 6.892 104.253 L 6.892 104.253 Z" fill="#ffffff"/>
			<path d="M 5.294 104.698 C 5.45 104.536 5.613 104.332 5.859 104.332 C 6.091 104.295 6.28 104.446 6.451 104.576 C 6.514 104.755 6.545 104.943 6.564 105.131 C 6.529 105.957 6.581 106.783 6.531 107.609 C 6.412 107.829 6.211 108.027 5.945 108.025 C 5.363 108.051 4.781 108.027 4.2 108.035 C 3.812 108.023 3.417 108.076 3.038 107.972 C 2.859 107.835 2.746 107.643 2.689 107.427 C 2.724 107.129 2.911 106.809 3.238 106.779 C 3.92 106.753 4.602 106.774 5.284 106.767 C 5.283 106.36 5.286 105.952 5.278 105.544 C 5.275 105.262 5.273 104.979 5.294 104.698 L 5.294 104.698 Z" fill="#ffffff"/>
		</g>
		<g>
			<path d="M 11.885 80.721 C 12.234 80.384 12.838 80.369 13.207 80.685 C 13.459 80.892 13.59 81.23 13.559 81.554 C 13.549 83.621 13.557 87.036 13.555 89.105 C 14.211 89.105 14.868 89.104 15.525 89.105 C 15.18 90.413 14.843 91.724 14.497 93.032 C 14.373 93.413 14.259 93.886 13.855 94.06 C 13.48 94.175 13.08 94.12 12.692 94.134 C 12.765 94.605 12.856 95.071 12.928 95.54 C 12.647 95.54 12.366 95.546 12.085 95.536 C 11.992 95.066 11.893 94.598 11.787 94.134 C 9.262 94.133 6.736 94.133 4.209 94.133 C 4.103 94.599 4.005 95.068 3.911 95.536 C 3.63 95.546 3.349 95.54 3.069 95.54 C 3.143 95.072 3.228 94.606 3.308 94.139 C 2.922 94.113 2.522 94.177 2.146 94.061 C 1.741 93.888 1.624 93.415 1.501 93.033 C 1.154 91.724 0.819 90.414 0.473 89.105 C 4.598 89.105 8.723 89.105 12.848 89.105 C 12.849 87.058 12.847 83.666 12.849 81.62 C 12.863 81.497 12.793 81.391 12.744 81.286 C 12.629 81.223 12.492 81.186 12.383 81.284 C 12.07 81.584 11.769 81.894 11.464 82.201 C 11.701 82.463 12.037 82.684 12.097 83.057 C 12.133 83.51 11.84 83.898 11.564 84.227 C 10.68 83.364 9.816 82.479 8.936 81.611 C 8.874 81.551 8.82 81.485 8.769 81.418 C 9.13 81.127 9.567 80.789 10.062 80.92 C 10.422 81.075 10.646 81.419 10.935 81.67 C 11.251 81.353 11.565 81.034 11.885 80.721 L 11.885 80.721 Z" fill="#ffffff"/>
			<path d="M 7.56 82.081 C 7.811 81.943 8.063 81.809 8.312 81.665 C 8.445 81.784 8.572 81.91 8.688 82.044 C 8.445 82.191 8.201 82.336 7.958 82.484 C 7.825 82.351 7.692 82.217 7.56 82.081 L 7.56 82.081 Z" fill="#ffffff"/>
			<path d="M 6.365 82.742 C 6.631 82.595 6.897 82.447 7.164 82.301 C 7.307 82.43 7.441 82.569 7.577 82.705 C 7.323 82.871 7.059 83.019 6.802 83.18 C 6.655 83.036 6.509 82.89 6.365 82.742 L 6.365 82.742 Z" fill="#ffffff"/>
			<path d="M 8.323 82.839 C 8.549 82.682 8.769 82.514 9 82.363 C 9.128 82.49 9.257 82.618 9.383 82.748 C 9.167 82.917 8.948 83.083 8.732 83.254 C 8.593 83.119 8.454 82.982 8.323 82.839 L 8.323 82.839 Z" fill="#ffffff"/>
			<path d="M 5.324 83.323 C 5.534 83.189 5.757 83.081 5.972 82.957 C 6.121 83.105 6.271 83.253 6.416 83.406 C 6.208 83.536 5.996 83.661 5.785 83.787 C 5.629 83.634 5.474 83.48 5.324 83.323 L 5.324 83.323 Z" fill="#ffffff"/>
			<path d="M 9.042 83.563 C 9.233 83.369 9.426 83.176 9.62 82.985 C 9.751 83.112 9.884 83.238 10.002 83.378 C 9.809 83.566 9.62 83.761 9.427 83.949 C 9.296 83.822 9.167 83.694 9.042 83.563 L 9.042 83.563 Z" fill="#ffffff"/>
			<path d="M 7.239 83.615 C 7.472 83.435 7.721 83.276 7.953 83.095 C 8.107 83.222 8.243 83.37 8.384 83.512 C 8.153 83.698 7.915 83.876 7.678 84.056 C 7.531 83.91 7.384 83.764 7.239 83.615 L 7.239 83.615 Z" fill="#ffffff"/>
			<path d="M 10.236 83.614 C 10.367 83.742 10.498 83.871 10.621 84.007 C 10.46 84.227 10.312 84.453 10.144 84.666 C 10.008 84.534 9.874 84.399 9.741 84.265 C 9.9 84.043 10.067 83.828 10.236 83.614 L 10.236 83.614 Z" fill="#ffffff"/>
			<path d="M 6.292 84.288 C 6.483 84.143 6.684 84.009 6.878 83.868 C 7.034 84.014 7.184 84.168 7.333 84.321 C 7.143 84.458 6.967 84.616 6.77 84.743 C 6.588 84.632 6.45 84.438 6.292 84.288 L 6.292 84.288 Z" fill="#ffffff"/>
			<path d="M 8.115 84.484 C 8.323 84.283 8.525 84.075 8.732 83.871 C 8.87 83.99 8.997 84.121 9.121 84.255 C 8.916 84.467 8.706 84.67 8.489 84.868 C 8.362 84.743 8.234 84.617 8.115 84.484 L 8.115 84.484 Z" fill="#ffffff"/>
			<path d="M 10.936 84.319 C 11.064 84.458 11.203 84.588 11.324 84.733 C 11.18 84.965 11.065 85.212 10.915 85.441 C 10.779 85.303 10.644 85.167 10.506 85.03 C 10.651 84.795 10.791 84.556 10.936 84.319 L 10.936 84.319 Z" fill="#ffffff"/>
			<path d="M 9.465 84.606 C 9.619 84.733 9.753 84.882 9.894 85.023 C 9.725 85.268 9.551 85.512 9.376 85.754 C 9.227 85.608 9.079 85.46 8.934 85.31 C 9.112 85.077 9.295 84.847 9.465 84.606 L 9.465 84.606 Z" fill="#ffffff"/>
			<path d="M 7.818 84.807 C 7.943 84.926 8.066 85.048 8.187 85.173 C 8.021 85.346 7.851 85.513 7.681 85.682 C 7.556 85.562 7.434 85.44 7.314 85.315 C 7.48 85.143 7.649 84.975 7.818 84.807 L 7.818 84.807 Z" fill="#ffffff"/>
			<path d="M 9.813 86.19 C 9.967 85.93 10.123 85.669 10.281 85.411 C 10.424 85.55 10.565 85.69 10.705 85.832 C 10.555 86.099 10.406 86.364 10.256 86.63 C 10.104 86.487 9.958 86.34 9.813 86.19 L 9.813 86.19 Z" fill="#ffffff"/>
			<path d="M 8.238 86.243 C 8.368 86.036 8.516 85.84 8.684 85.661 C 8.826 85.814 8.977 85.959 9.122 86.111 C 8.984 86.307 8.845 86.505 8.704 86.701 C 8.543 86.554 8.395 86.395 8.238 86.243 L 8.238 86.243 Z" fill="#ffffff"/>
			<path d="M 9.585 86.569 C 9.736 86.72 9.886 86.87 10.037 87.021 C 9.916 87.238 9.798 87.457 9.666 87.667 C 9.51 87.513 9.351 87.36 9.203 87.199 C 9.333 86.992 9.457 86.779 9.585 86.569 L 9.585 86.569 Z" fill="#ffffff"/>
		</g>
		<g>
			<path d="M 5.531 122.131 C 5.358 122.196 5.267 122.42 5.361 122.586 C 5.42 122.707 5.563 122.771 5.694 122.761 C 7.234 122.76 8.774 122.761 10.313 122.76 C 10.489 122.767 10.652 122.604 10.644 122.427 C 10.642 122.258 10.49 122.104 10.319 122.112 C 8.764 122.112 7.209 122.112 5.655 122.112 C 5.612 122.11 5.571 122.117 5.531 122.131 L 5.531 122.131 ZM 5.468 120.941 C 5.359 120.995 5.287 121.112 5.288 121.233 C 5.286 121.409 5.449 121.568 5.625 121.554 C 7.176 121.553 8.728 121.554 10.28 121.554 C 10.455 121.566 10.612 121.402 10.609 121.23 C 10.613 121.056 10.456 120.903 10.283 120.906 C 8.777 120.904 7.272 120.906 5.766 120.905 C 5.666 120.905 5.56 120.895 5.468 120.941 L 5.468 120.941 ZM 13.528 120.74 C 13.039 120.774 12.613 121.197 12.59 121.69 C 12.544 122.164 12.883 122.632 13.342 122.749 C 13.661 122.847 14.02 122.756 14.272 122.541 C 14.581 122.288 14.711 121.844 14.589 121.466 C 14.458 121.017 13.994 120.696 13.528 120.74 L 13.528 120.74 ZM 2.387 120.741 C 1.906 120.769 1.485 121.177 1.444 121.655 C 1.419 121.894 1.479 122.138 1.616 122.336 C 1.832 122.666 2.258 122.848 2.644 122.77 C 3.038 122.701 3.378 122.382 3.459 121.988 C 3.546 121.641 3.42 121.255 3.157 121.015 C 2.953 120.825 2.667 120.718 2.387 120.741 L 2.387 120.741 ZM 4.409 114.843 C 3.894 114.924 3.397 115.239 3.198 115.736 C 2.867 116.569 2.537 117.404 2.207 118.237 C 2.165 118.349 2.111 118.469 2.146 118.59 C 2.172 118.794 2.345 118.954 2.539 119 C 2.626 119.016 2.716 119.009 2.804 119.01 C 6.32 119.009 9.835 119.01 13.349 119.009 C 13.658 119.01 13.923 118.669 13.813 118.373 C 13.435 117.498 13.041 116.63 12.65 115.759 C 12.362 115.148 11.674 114.822 11.022 114.804 C 8.964 114.805 6.907 114.805 4.849 114.804 C 4.701 114.8 4.554 114.821 4.409 114.843 L 4.409 114.843 ZM 4.081 114.194 C 4.342 114.12 4.616 114.102 4.886 114.106 C 6.919 114.107 8.952 114.106 10.985 114.106 C 11.258 114.102 11.535 114.115 11.799 114.189 C 12.472 114.367 13.051 114.863 13.33 115.502 C 14.033 117.116 14.719 118.737 15.431 120.348 C 15.516 120.584 15.55 120.837 15.552 121.088 C 15.553 121.652 15.552 122.219 15.552 122.783 C 15.554 123.074 15.523 123.371 15.415 123.644 C 15.185 124.26 14.639 124.743 14 124.896 C 13.989 125.553 13.992 126.213 13.991 126.872 C 13.991 127.137 13.79 127.389 13.528 127.436 L 12.583 127.436 C 12.406 127.391 12.248 127.264 12.181 127.091 C 12.116 126.945 12.133 126.781 12.131 126.626 C 12.13 126.087 12.133 125.549 12.129 125.012 C 9.294 125.011 6.46 125.011 3.625 125.012 C 3.623 125.549 3.625 126.086 3.624 126.625 C 3.623 126.769 3.639 126.92 3.588 127.059 C 3.527 127.248 3.361 127.389 3.171 127.436 L 2.211 127.436 C 1.958 127.373 1.762 127.135 1.764 126.873 C 1.769 126.188 1.748 125.504 1.755 124.818 C 1.012 124.539 0.476 123.794 0.456 122.999 C 0.443 122.327 0.453 121.653 0.451 120.981 C 0.448 120.636 0.526 120.293 0.68 119.987 C 1.305 118.507 1.925 117.024 2.547 115.543 C 2.817 114.892 3.398 114.377 4.081 114.194 L 4.081 114.194 Z" fill="#ffffff"/>
			<g>
				<path d="M 10.705 116.287 C 10.727 116.281 10.769 116.276 10.832 116.276 C 10.986 116.276 11.073 116.349 11.073 116.476 C 11.073 116.617 10.972 116.699 10.807 116.699 C 10.762 116.699 10.73 116.697 10.703 116.69 L 10.705 116.287 L 10.705 116.287 L 10.705 116.287 ZM 10.705 116.932 C 10.733 116.935 10.769 116.937 10.81 116.937 C 10.992 116.937 11.148 116.893 11.254 116.792 C 11.335 116.715 11.38 116.603 11.38 116.468 C 11.38 116.334 11.321 116.222 11.233 116.152 C 11.142 116.08 11.006 116.043 10.815 116.043 C 10.627 116.043 10.493 116.055 10.398 116.071 L 10.398 117.42 L 10.704 117.42 L 10.704 116.932 L 10.705 116.932 Z" fill="#ffffff"/>
				<path d="M 10.053 115.989 C 10.053 115.937 10.095 115.895 10.148 115.895 L 11.631 115.895 C 11.683 115.895 11.725 115.937 11.725 115.989 L 11.725 117.472 C 11.725 117.524 11.683 117.566 11.631 117.566 L 10.148 117.566 C 10.095 117.566 10.053 117.524 10.053 117.472 L 10.053 115.989 L 10.053 115.989 ZM 10.126 117.843 L 11.651 117.843 C 11.843 117.843 12 117.686 12 117.494 L 12 115.968 C 12 115.777 11.844 115.62 11.651 115.62 L 10.126 115.62 C 9.934 115.62 9.777 115.776 9.777 115.968 L 9.777 117.494 C 9.777 117.686 9.934 117.843 10.126 117.843 L 10.126 117.843 Z" fill="#ffffff"/>
			</g>
		</g>
	</g>
</svg>